<svg xmlns="http://www.w3.org/2000/svg" viewBox="0 0 200.29 200.29"><defs><style>.cls-1{fill:none;stroke:#000;stroke-linecap:round;stroke-linejoin:round;stroke-width:15px;}</style></defs><title>Asset 20</title><g id="Layer_2" data-name="Layer 2"><g id="Layer_12" data-name="Layer 12"><g id="Layer_13" data-name="Layer 13"><circle class="cls-1" cx="100.14" cy="100.14" r="92.64"/><path d="M153.29,55.32c-1.13.53-6.52,5.82-38.65,37.93L77.31,130.58,62.69,116c-8-8-15-14.78-15.46-15a8,8,0,0,0-5.39,0,6.59,6.59,0,0,0-3,3.27,5.92,5.92,0,0,0,.19,5.12c.75,1.5,34,34.74,35.5,35.49a7.88,7.88,0,0,0,2.46.65,4.32,4.32,0,0,0,2.78-.5c1.28-.58,5.17-4.38,41.22-40.45s39.86-39.94,40.44-41.22a4.36,4.36,0,0,0,.51-2.8,6.14,6.14,0,0,0-5.85-5.73A4.46,4.46,0,0,0,153.29,55.32Z"/></g></g></g></svg>