<svg xmlns="http://www.w3.org/2000/svg" viewBox="0 0 114.34 140.43"><defs><style>.cls-1{fill:#fff;}</style></defs><title>Asset 13</title><g id="Layer_2" data-name="Layer 2"><g id="svg-apple-logo"><path class="cls-1" d="M110.69,47.88c-.82.63-15.2,8.73-15.2,26.75,0,20.85,18.3,28.22,18.85,28.4A73.9,73.9,0,0,1,104.69,123c-6,8.65-12.29,17.29-21.84,17.29s-12-5.55-23-5.55c-10.75,0-14.57,5.73-23.3,5.73s-14.83-8-21.84-17.83C6.56,111.05,0,93.12,0,76.09c0-27.3,17.75-41.78,35.22-41.78,9.29,0,17,6.1,22.85,6.1,5.55,0,14.2-6.46,24.77-6.46,4,0,18.38.36,27.85,13.93ZM77.82,22.39A31.38,31.38,0,0,0,85.28,2.82,13,13,0,0,0,85,0c-7.1.27-15.56,4.73-20.66,10.65-4,4.55-7.74,11.74-7.74,19a13.19,13.19,0,0,0,.27,2.54,11.47,11.47,0,0,0,1.91.18c6.38,0,14.4-4.27,19-10Z"/></g></g></svg>