<svg version="1.1" xmlns="http://www.w3.org/2000/svg" xmlns:xlink="http://www.w3.org/1999/xlink" width="261.52px" height="261.52px" viewBox="0,0,256,256"><g fill="none" fill-rule="nonzero" stroke="none" stroke-width="none" stroke-linecap="none" stroke-linejoin="none" stroke-miterlimit="10" stroke-dasharray="" stroke-dashoffset="0" font-family="none" font-weight="none" font-size="none" text-anchor="none" style="mix-blend-mode: normal"><g transform="translate(256,0) rotate(90) scale(0.97889,0.97889)"><g id="Layer_2"><g id="png-back-button"><path d="M67.24,83.76c-32.66,32.46 -41.73,42.79 -41.73,47c0,4.21 9.07,14.54 41.73,47c43.63,43.42 47,45.52 55.22,37.3c8,-8 5.69,-12 -24.66,-42.57l-28.87,-29.08h79.46c76.71,0 79.66,-0.21 83.67,-4.22c5.27,-5.27 5.27,-11.59 0,-16.86c-4,-4 -7,-4.21 -83.67,-4.21h-79.46l28.87,-29.12c30.35,-30.56 32.67,-34.56 24.66,-42.57c-8.22,-8.19 -11.59,-6.09 -55.22,37.33z" fill="#000000" stroke="none" stroke-width="1" stroke-linecap="butt" stroke-linejoin="miter"></path><circle cx="130.76" cy="130.76" r="123.26" fill="none" stroke="#000000" stroke-width="15" stroke-linecap="round" stroke-linejoin="round"></circle></g></g></g></g></svg>