<svg xmlns="http://www.w3.org/2000/svg" viewBox="0 0 261.52 261.52"><defs><style>.cls-1{fill:none;stroke:#000;stroke-linecap:round;stroke-linejoin:round;stroke-width:15px;}</style></defs><title>Asset 11</title><g id="Layer_2" data-name="Layer 2"><g id="png-back-button"><path d="M67.24,83.76c-32.66,32.46-41.73,42.79-41.73,47s9.07,14.54,41.73,47c43.63,43.42,47,45.52,55.22,37.3,8-8,5.69-12-24.66-42.57L68.93,143.41h79.46c76.71,0,79.66-.21,83.67-4.22,5.27-5.27,5.27-11.59,0-16.86-4-4-7-4.21-83.67-4.21H68.93L97.8,89c30.35-30.56,32.67-34.56,24.66-42.57C114.24,38.24,110.87,40.34,67.24,83.76Z"/><circle class="cls-1" cx="130.76" cy="130.76" r="123.26"/></g></g></svg>