<svg xmlns="http://www.w3.org/2000/svg" viewBox="0 0 190.51 190.51"><defs><style>.cls-1{fill:none;stroke:#000;stroke-linecap:round;stroke-linejoin:round;stroke-width:15px;}</style></defs><title>Asset 19</title><g id="Layer_2" data-name="Layer 2"><g id="Layer_12" data-name="Layer 12"><g id="Layer_14" data-name="Layer 14"><circle class="cls-1" cx="95.26" cy="95.26" r="87.76"/><path d="M50.78,45.73a6.55,6.55,0,0,0-4.64,3.63A5.05,5.05,0,0,0,45.62,52c0,3-1.33,1.52,20.88,23.71L86.13,95.35l-19.8,19.82c-16.07,16.11-19.86,20-20.23,20.79a7.31,7.31,0,0,0,0,5.25,7.54,7.54,0,0,0,3,3.16,7.28,7.28,0,0,0,5.25.24c1.13-.43,1.83-1.09,21-20.29l19.86-19.83L115,124.23c15.87,15.85,20,19.83,20.73,20.2a5.32,5.32,0,0,0,2.82.47,4.7,4.7,0,0,0,2.82-.53,7.75,7.75,0,0,0,3.07-3.22,7.37,7.37,0,0,0-.06-5.19c-.37-.79-4.16-4.68-20.23-20.79l-19.8-19.82L124,75.73C146.22,53.54,144.9,55,144.9,52a5.06,5.06,0,0,0-.5-2.62,6.51,6.51,0,0,0-8.82-3.07c-.51.25-7.6,7.19-20.54,20.13L95.26,86.22,75.5,66.46c-13-12.94-20-19.88-20.56-20.13a11.36,11.36,0,0,0-3.18-.8Z"/></g></g></g></svg>