<svg xmlns="http://www.w3.org/2000/svg" viewBox="0 0 100 137.51"><defs><style>.cls-1{fill:#fff;}</style></defs><title>Asset 14</title><g id="Layer_2" data-name="Layer 2"><g id="Layer_11" data-name="Layer 11"><path class="cls-1" d="M27.6.94C19.4,2,9.6,4.44,5.9,6.44-.1,9.54,0,9,0,33.34v22.4l2.7,1.9c1.6,1.1,4.7,2.9,7,4.1l4.3,2.1v63l4.8,3.1c16.8,10.6,52,10,64.8-1.3l3.4-3V94.34c0-31.2,0-31.4,2.1-32a37.79,37.79,0,0,0,6.5-3.4l4.4-2.6V11l-3-2.6c-3.9-3.2-10.7-5.3-23.5-7.1C62.6-.26,38.6-.46,27.6.94Z"/></g></g></svg>