<svg version="1.1" xmlns="http://www.w3.org/2000/svg" xmlns:xlink="http://www.w3.org/1999/xlink" width="48" height="48" viewBox="0,0,256,256"><g fill="#ffd46a" fill-rule="nonzero" stroke="none" stroke-width="1" stroke-linecap="butt" stroke-linejoin="miter" stroke-miterlimit="10" stroke-dasharray="" stroke-dashoffset="0" font-family="none" font-weight="none" font-size="none" text-anchor="none" style="mix-blend-mode: normal"><g transform="translate(0,256) scale(0.26667,0.26667)"><path d="M140,-160c-16,0 -30,-6.16667 -42,-18.5c-12,-12.33333 -18,-26.16667 -18,-41.5v-520c0,-15.33333 6,-29.16667 18,-41.5c12,-12.33333 26,-18.5 42,-18.5h281l60,60h339c15.33333,0 29.16667,6.16667 41.5,18.5c12.33333,12.33333 18.5,26.16667 18.5,41.5v460c0,15.33333 -6.16667,29.16667 -18.5,41.5c-12.33333,12.33333 -26.16667,18.5 -41.5,18.5z"></path></g></g></svg>