<svg xmlns="http://www.w3.org/2000/svg" viewBox="0 0 190.44 190.44"><defs><style>.cls-1{fill:none;stroke:#000;stroke-linecap:round;stroke-linejoin:round;stroke-width:15px;}</style></defs><title>Asset 21</title><g id="Layer_2" data-name="Layer 2"><g id="Layer_12" data-name="Layer 12"><g id="Layer_17" data-name="Layer 17"><circle class="cls-1" cx="95.22" cy="95.22" r="87.72"/><path d="M94.05,40a8.32,8.32,0,0,0-1.3.57c-.4.19-7.77,7.44-16.42,16.11C62,71.07,60.62,72.55,60.36,73.52a5,5,0,0,0,5.89,6.36l1.3-.28L78.74,68.43C84.89,62.28,90,57.26,90.12,57.26s.16,14.47.16,32.16c0,31.19,0,32.21.45,33.05a5,5,0,0,0,9.07-.23c.33-.78.37-4.48.37-32.94,0-17.62.08-32,.17-32s5.23,5,11.38,11.17L122.91,79.6l1.29.28a5,5,0,0,0,5.89-6.36c-.26-1-1.65-2.45-16-16.8C105.26,47.84,98,40.77,97.54,40.52A5.32,5.32,0,0,0,94.05,40Z"/><path d="M43.59,100.42a5.43,5.43,0,0,0-3.39,3.4c-.55,1.86-.36,25.06.21,27.44,2.26,9.38,8.76,16.16,17.71,18.47,3.11.8,5.59.85,38.76.75,35.71-.09,33.47,0,37.48-1.36A24.41,24.41,0,0,0,149,134.68c1.39-4,1.39-4,1.51-17.11.12-13.73.12-14-1.37-15.64a4.89,4.89,0,0,0-7.91.75l-.66,1.11-.12,12.72c-.14,12.32-.14,12.77-.64,14.09a14.47,14.47,0,0,1-9.49,9.26c-1.25.42-2.69.45-35.1.45s-33.86,0-35.1-.45a15.17,15.17,0,0,1-7-4.67A17.29,17.29,0,0,1,50.26,129c-.17-.89-.26-5.72-.26-13.12V104.19l-.66-1.25A5,5,0,0,0,43.59,100.42Z"/></g></g></g></svg>