<svg xmlns="http://www.w3.org/2000/svg" viewBox="0 0 232.46 232.46"><defs><style>.cls-1{fill:none;stroke:#000;stroke-linecap:round;stroke-linejoin:round;stroke-width:15px;}</style></defs><title>OpenFolder02</title><g id="Layer_2" data-name="Layer 2"><g id="Layer_7" data-name="Layer 7"><path d="M154.09,52c-8.5,2.54-14.61,6-19.29,11a34.63,34.63,0,0,0-8.4,16.44c-.43,1.77-.55,4.77-.7,16.9l-.19,14.8-.73.58c-.64.52-1.25.58-5.5.58h-4.77l9.26,9.23,9.23,9.26,9.23-9.26,9.26-9.23h-4.83c-4.76,0-4.83,0-5.59-.77l-.76-.79.12-14c.12-12.71.18-14.24.76-16.93C143.3,70,148,60.7,154.34,54.15c1.58-1.68,2.84-3,2.78-3S155.68,51.56,154.09,52Z"/><path d="M47.57,58.74A10.35,10.35,0,0,0,41,64.12l-.76,1.53V166.21l.7,1.37a9.38,9.38,0,0,0,4.4,4.62l1.93,1,67.7.06c41.6,0,67.24-.06,66.51-.25a14.4,14.4,0,0,1-6-3.54,15.22,15.22,0,0,1-2.2-3.4l-1-2-.09-36.93-.07-36.89H145.23v17.12h6.57c6.6,0,6.6,0,7.33.76a2.3,2.3,0,0,1,.77,1.74c0,.92-1.13,2.14-12.93,13.91-12,12.08-13,12.93-14,12.93s-1.92-.85-14-12.93c-11.8-11.77-12.93-13-12.93-13.91a2.3,2.3,0,0,1,.77-1.74c.73-.76.73-.76,7.33-.76h6.57V90.31l-6-.12c-6.84-.09-8-.4-10.27-2.63-.64-.61-4.7-6-9-12-8.29-11.43-10.55-14.09-13.15-15.4-3.27-1.65-3.85-1.72-19.47-1.69C55,58.53,48.09,58.62,47.57,58.74Z"/><path d="M94.7,66.2c.12.24,3.12,4.37,6.64,9.2,5.07,7,6.63,8.89,7.54,9.38s1.84.58,6.52.58h5.34l.19-1.77a43.56,43.56,0,0,1,4.09-15A24.46,24.46,0,0,0,126.28,66c0-.09-7.16-.15-15.9-.15C97.21,65.8,94.49,65.86,94.7,66.2Z"/><path d="M149.87,69.07a52.6,52.6,0,0,0-4.46,15.13l-.15,1.16H177l.07,38,.09,38,.7,1.37a9.38,9.38,0,0,0,4.4,4.62c1.77.94,2.14,1,4.53,1a7.24,7.24,0,0,0,4.15-.8,8.89,8.89,0,0,0,4.43-4.28l1-1.92.1-38.88c.09-43.56.18-41.27-2.11-45.94A19.53,19.53,0,0,0,185.88,68c-4.25-2.08-5-2.17-20.66-2.17H151.43Z"/><circle class="cls-1" cx="116.23" cy="116.23" r="108.73"/></g></g></svg>