<svg xmlns="http://www.w3.org/2000/svg" viewBox="0 0 232.46 232.46"><defs><style>.cls-1{fill:none;stroke:#000;stroke-linecap:round;stroke-linejoin:round;stroke-width:15px;}</style></defs><title>SettingsDarkNew01</title><g id="Layer_2" data-name="Layer 2"><g id="svg-settings"><g id="Layer_8" data-name="Layer 8"><path d="M106.43,24.15c0,1.18-1.92,11.88-2.28,12.77a12.52,12.52,0,0,1-5,5.09c-1.56.82-2.24,1-5,1-4.73,0-5.73-.67-11.88-8.11-1.43-1.71-2.78-3.09-3-3-.89.21-16.54,9.35-16.58,9.67s.89,2.74,2,5.69c1.67,4.49,2,5.77,2,7.72A10.43,10.43,0,0,1,56.27,65.31c-1.92,0-3.2-.32-7.68-2-3-1.14-5.52-2-5.69-2S33.43,77,33.22,77.87c-.07.25,1.32,1.6,3,3,7.08,5.84,8,7.08,8.22,11.39a8,8,0,0,1-.82,4.91,11.84,11.84,0,0,1-5.3,5.55,129.61,129.61,0,0,1-12.8,2.31c-.11,0-.22,4.48-.22,10s.11,10,.22,10,2.77.39,5.9.89c6.58,1.07,8.22,1.71,10.42,4.16,3.49,3.88,3.6,10.35.25,13.94-.53.54-2.77,2.53-5,4.38s-4,3.56-3.91,3.81c.21.89,9.36,16.54,9.68,16.57s2.73-.89,5.69-2c4.48-1.68,5.76-2,7.72-2a10.43,10.43,0,0,1,10.38,10.46c0,1.92-.32,3.2-2,7.68-1.14,2.95-2,5.52-2,5.69,0,.32,15.69,9.47,16.58,9.68.25.07,1.6-1.32,3-3,6.15-7.44,7.15-8.12,11.88-8.12,2.77,0,3.45.15,5,1a12.5,12.5,0,0,1,5,5.08c.36.89,2.28,11.6,2.28,12.77,0,.11,4.48.22,10,.22s10-.11,10-.22c0-1.17,1.92-11.88,2.28-12.77a12.56,12.56,0,0,1,5-5.08c1.56-.82,2.24-1,5-1,4.74,0,5.73.68,11.89,8.12,1.42,1.7,2.81,3.09,3.06,3,.85-.21,16.5-9.36,16.54-9.68,0-.17-.89-2.74-2-5.69-1.67-4.48-2-5.76-2-7.68a10.43,10.43,0,0,1,10.38-10.46c2,0,3.17.32,7.72,2,3,1.1,5.52,2,5.7,2s9.46-15.68,9.67-16.57c.07-.25-1.39-1.68-3.2-3.2-7.4-6.19-7.93-6.94-7.93-11.71,0-2.77.14-3.45,1-5a12.5,12.5,0,0,1,5.08-5c.89-.36,11.6-2.28,12.78-2.28.1,0,.21-4.48.21-10s-.11-10-.21-10c-1.18,0-11.89-1.92-12.78-2.28a12.63,12.63,0,0,1-5.08-5c-.82-1.56-1-2.24-1-5,0-4.76.53-5.51,7.93-11.7,1.81-1.53,3.27-3,3.2-3.2-.21-.89-9.35-16.54-9.67-16.58s-2.74.89-5.7,2c-4.48,1.67-5.76,2-7.68,2a10.43,10.43,0,0,1-10.46-10.39c0-2,.32-3.16,2-7.72,1.1-3,2-5.51,2-5.69s-15.69-9.46-16.54-9.67c-.25-.07-1.64,1.31-3.06,3C144.35,42.3,143.36,43,138.62,43c-2.77,0-3.45-.14-5-1a12.58,12.58,0,0,1-5-5.09c-.36-.89-2.28-11.59-2.28-12.77,0-.1-4.48-.21-10-.21S106.43,24.05,106.43,24.15Zm19.21,43.72a52.37,52.37,0,0,1,17.79,7.47A66.85,66.85,0,0,1,156.06,88a52.3,52.3,0,0,1,7.54,18.14,62.37,62.37,0,0,1,0,17.79,49.11,49.11,0,0,1-38.32,38.31,61.59,61.59,0,0,1-17.78,0A49.11,49.11,0,0,1,69.18,123.9a62.37,62.37,0,0,1,0-17.79A46.9,46.9,0,0,1,82.42,81.36a47.6,47.6,0,0,1,29-14.16A83.92,83.92,0,0,1,125.64,67.87Z"/><path d="M110.7,78.05A39.16,39.16,0,0,0,88,90.82a37.28,37.28,0,0,0-2.91,44.39c5.15,8,12.84,13.45,22.76,16.19,3.88,1,13.2,1,17.08,0a39,39,0,0,0,17.89-10.1,37.31,37.31,0,0,0,1.78-50.7,38,38,0,0,0-20.21-12.09A54.12,54.12,0,0,0,110.7,78.05ZM121.62,88.9a25.84,25.84,0,0,1,13.7,7.5A24.63,24.63,0,0,1,142.89,115a31.39,31.39,0,0,1-.5,6,27.24,27.24,0,0,1-20.73,20.06c-18.47,3.81-35.19-12.91-31.38-31.38a25.18,25.18,0,0,1,7.51-13.66A26,26,0,0,1,121.62,88.9Z"/></g><circle class="cls-1" cx="116.23" cy="116.23" r="108.73"/></g></g></svg>