<?xml version="1.0" standalone="no"?>
<!DOCTYPE svg PUBLIC "-//W3C//DTD SVG 20010904//EN"
 "http://www.w3.org/TR/2001/REC-SVG-20010904/DTD/svg10.dtd">
<svg version="1.0" xmlns="http://www.w3.org/2000/svg"
 width="512.000000pt" height="512.000000pt" viewBox="0 0 512.000000 512.000000"
 preserveAspectRatio="xMidYMid meet">

<g transform="translate(0.000000,512.000000) scale(0.100000,-0.100000)"
fill="#000000" stroke="none">
<path d="M2280 5114 c0 -33 -54 -334 -64 -359 -21 -49 -84 -113 -140 -143 -44
-23 -63 -27 -141 -27 -133 0 -161 19 -334 228 -40 48 -78 87 -85 85 -25 -6
-465 -263 -466 -272 0 -5 25 -77 57 -160 47 -126 56 -162 57 -217 1 -160 -133
-293 -294 -292 -54 0 -90 9 -216 56 -83 32 -155 57 -160 57 -9 -1 -266 -441
-272 -466 -2 -7 37 -45 85 -85 199 -164 224 -199 231 -320 4 -67 1 -83 -23
-138 -30 -66 -94 -133 -149 -156 -26 -11 -326 -65 -360 -65 -3 0 -6 -126 -6
-280 0 -154 3 -280 6 -280 4 0 78 -11 166 -25 185 -30 231 -48 293 -117 98
-109 101 -291 7 -392 -15 -15 -78 -71 -140 -123 -62 -52 -112 -100 -110 -107
6 -25 263 -465 272 -466 5 0 77 25 160 57 126 47 162 56 217 57 160 1 293
-133 292 -294 0 -54 -9 -90 -56 -216 -32 -83 -57 -155 -57 -160 1 -9 441 -266
466 -272 7 -2 45 37 85 85 173 209 201 228 334 228 78 0 97 -4 141 -27 56 -30
119 -94 140 -143 10 -25 64 -326 64 -359 0 -3 126 -6 280 -6 154 0 280 3 280
6 0 33 54 334 64 359 21 49 84 113 140 143 44 23 63 27 141 27 133 0 161 -19
334 -228 40 -48 79 -87 86 -85 24 6 464 263 465 272 0 5 -25 77 -57 160 -47
126 -56 162 -56 216 -1 161 131 294 292 294 56 0 89 -9 217 -57 83 -31 155
-57 160 -57 8 1 266 441 272 466 2 7 -39 47 -90 90 -208 174 -223 195 -223
329 0 78 4 97 27 141 30 56 94 119 143 140 25 10 326 64 359 64 3 0 6 126 6
280 0 154 -3 280 -6 280 -33 0 -334 54 -359 64 -49 21 -113 84 -143 140 -23
44 -27 63 -27 141 0 134 15 155 223 329 51 43 92 84 90 90 -6 25 -263 465
-272 466 -5 0 -77 -25 -160 -57 -126 -47 -162 -56 -216 -56 -161 -1 -294 131
-294 292 0 56 9 89 57 217 31 83 57 155 57 160 -1 9 -441 266 -465 272 -7 2
-46 -37 -86 -85 -173 -209 -201 -228 -334 -228 -78 0 -97 4 -141 27 -56 30
-119 94 -140 143 -10 25 -64 326 -64 359 0 3 -126 6 -280 6 -154 0 -280 -3
-280 -6z m540 -1229 c168 -34 349 -110 500 -210 96 -64 291 -259 355 -355 102
-154 173 -325 212 -510 24 -118 24 -382 0 -500 -59 -284 -179 -506 -381 -705
-201 -199 -415 -313 -696 -372 -118 -24 -382 -24 -500 0 -284 59 -504 178
-705 381 -198 200 -313 415 -372 696 -24 118 -24 382 0 500 59 281 173 495
372 696 224 227 493 358 815 398 67 8 326 -4 400 -19z"/>
<path d="M2400 3599 c-234 -36 -485 -177 -638 -359 -300 -357 -333 -860 -82
-1248 145 -225 361 -378 640 -455 109 -29 371 -29 480 0 205 56 370 150 503
284 387 392 408 1004 50 1425 -143 167 -338 284 -568 340 -76 19 -300 26 -385
13z m307 -305 c151 -31 275 -99 385 -211 149 -153 213 -310 213 -523 0 -64 -6
-139 -14 -170 -71 -284 -299 -505 -583 -564 -519 -107 -989 363 -882 882 32
154 96 271 211 384 183 179 426 253 670 202z"/>
</g>
</svg>
