<svg xmlns="http://www.w3.org/2000/svg" viewBox="0 0 170.3 150.23"><defs><style>.cls-1{fill:#fff;}</style></defs><title>Asset 12</title><g id="Layer_2" data-name="Layer 2"><g id="svg-windows-logo"><path class="cls-1" d="M170,20.72c-33,13.7-49,6-63.2-3.6l-16,56.4c14.3,9.7,31.5,17.7,63.2,3.5l16.3-56.3Z"/><path class="cls-1" d="M63,134.22c-14.3-9.6-30-17.6-63-3.9l16.2-56.6c33-13.6,49-5.9,63.3,3.8Z"/><path class="cls-1" d="M82.2,67.32A53.84,53.84,0,0,0,51.2,56c-8.7-.1-19.1,2.4-32.2,7.8L35.2,7.42c33.1-13.7,49-6,63.3,3.7Z"/><path class="cls-1" d="M88,83c14.4,9.6,30.3,17.3,63.3,3.6L135,142.82c-33,13.7-48.9,6-63.2-3.7L88.1,83Z"/></g></g></svg>